HIERARCHY
ROOT Hips
{
  OFFSET 47.2531 84.1923 12.3953
  CHANNELS 6 Xposition Yposition Zposition Zrotation Xrotation Yrotation
  JOINT spine
  {
    OFFSET 0 6.24479 0.359107
    CHANNELS 3 Zrotation Xrotation Yrotation
    JOINT spine1
    {
      OFFSET 0 9.06941 0
      CHANNELS 3 Zrotation Xrotation Yrotation
      JOINT spine2
      {
        OFFSET 0 8.69014 0
        CHANNELS 3 Zrotation Xrotation Yrotation
        JOINT Neck
        {
          OFFSET 0 22.3112 1.06372
          CHANNELS 3 Zrotation Xrotation Yrotation
          JOINT Head
          {
            OFFSET 0 6.74081 0
            CHANNELS 3 Zrotation Xrotation Yrotation
            End Site
            {
              OFFSET 0 16.3165 -5.38097
            }
          }
        }
        JOINT RightShoulder
        {
          OFFSET -3.65916 9.38468 -0.509514
          CHANNELS 3 Zrotation Xrotation Yrotation
          JOINT RightArm
          {
            OFFSET 0 12.3089 0
            CHANNELS 3 Zrotation Xrotation Yrotation
            JOINT RightArmRoll
            {
              OFFSET 0 6.21375 0
              CHANNELS 3 Zrotation Xrotation Yrotation
              JOINT RightForeArm
              {
                OFFSET 0 18.0985 0
                CHANNELS 3 Zrotation Xrotation Yrotation
                JOINT RightForeArmRoll
                {
                  OFFSET 0 6.97279 0
                  CHANNELS 3 Zrotation Xrotation Yrotation
                  JOINT RightHand
                  {
                    OFFSET 0 13.9929 0
                    CHANNELS 3 Zrotation Xrotation Yrotation
                    End Site
                    {
                      OFFSET 0 0 0
                    }
                  }
                }
              }
            }
          }
        }
        JOINT LeftShoulder
        {
          OFFSET 3.65916 9.38468 -0.509514
          CHANNELS 3 Zrotation Xrotation Yrotation
          JOINT LeftArm
          {
            OFFSET 0 12.3089 0
            CHANNELS 3 Zrotation Xrotation Yrotation
            JOINT LeftArmRoll
            {
              OFFSET 0 6.21375 0
              CHANNELS 3 Zrotation Xrotation Yrotation
              JOINT LeftForeArm
              {
                OFFSET 0 18.0985 0
                CHANNELS 3 Zrotation Xrotation Yrotation
                JOINT LeftForeArmRoll
                {
                  OFFSET 0 6.97279 0
                  CHANNELS 3 Zrotation Xrotation Yrotation
                  JOINT LeftHand
                  {
                    OFFSET 0 13.9929 0
                    CHANNELS 3 Zrotation Xrotation Yrotation
                    End Site
                    {
                      OFFSET 0 0 0
                    }
                  }
                }
              }
            }
          }
        }
      }
    }
  }
  JOINT RightUpLeg
  {
    OFFSET -5.53515 -1.015 -0.851454
    CHANNELS 3 Zrotation Xrotation Yrotation
    JOINT RightUpLegRoll
    {
      OFFSET 0 16.4075 0
      CHANNELS 3 Zrotation Xrotation Yrotation
      JOINT RightLeg
      {
        OFFSET 0 -20.3181 0
        CHANNELS 3 Zrotation Xrotation Yrotation
        JOINT RightLegRoll
        {
          OFFSET 0 20.3846 0
          CHANNELS 3 Zrotation Xrotation Yrotation
          JOINT RightFoot
          {
            OFFSET 0 16.9668 0
            CHANNELS 3 Zrotation Xrotation Yrotation
            JOINT RightToeBase
            {
              OFFSET 0 14.1834 0
              CHANNELS 3 Zrotation Xrotation Yrotation
              End Site
              {
                OFFSET 0.0060118 6.8689 -0.791746
              }
            }
          }
        }
      }
    }
  }
  JOINT LeftUpLeg
  {
    OFFSET 5.53515 -1.015 -0.851454
    CHANNELS 3 Zrotation Xrotation Yrotation
    JOINT LeftUpLegRoll
    {
      OFFSET 0 16.4076 0
      CHANNELS 3 Zrotation Xrotation Yrotation
      JOINT LeftLeg
      {
        OFFSET 0 20.3181 0
        CHANNELS 3 Zrotation Xrotation Yrotation
        JOINT LeftLegRoll
        {
          OFFSET 0 20.5731 0
          CHANNELS 3 Zrotation Xrotation Yrotation
          JOINT LeftFoot
          {
            OFFSET 0 16.7783 0
            CHANNELS 3 Zrotation Xrotation Yrotation
            JOINT LeftToeBase
            {
              OFFSET 0 14.1834 0
              CHANNELS 3 Zrotation Xrotation Yrotation
              End Site
              {
                OFFSET -0.0269423 6.8689 -0.791746
              }
            }
          }
        }
      }
    }
  }
}
MOTION
Frames: 8
Frame Time: 0.00208333
46.9846 84.2143 12.8688 0.20843 -1.14915 -4.09585 -0.234246 -1.67036 0.0480692 -0.465875 0.672779 0.125063 -0.467636 2.31782 0.132925 5.11283 14.1613 0.613291 -4.65624 -2.85904 1.79865 68.505 0.382403 -0.898871 116.245 27.396 -45.6099 6.50634e-006 -4.15991e-006 3.82449e-006 11.4444 88.3219 -17.2426 -5.51698e-006 5.23422e-007 -3 8.03017 -4.95124 0.697628 -59.9268 -9.08047 5.64952 -122.202 24.2351 51.5924 -6.30101e-006 -6.67592e-006 -5.80768e-007 -26.5386 79.5899 28.5205 5.05732e-006 3.15039e-006 3 -8.03011 -4.95122 -0.697626 176.382 7.81654 0.961559 180 7.01592e-015 179.142 178.802 13.1916 179.156 -3.17488e-006 2.18243e-006 0.19269 -17.3059 69.9516 21.1359 8.13649 25.2326 -3.48773 -176.125 -0.0576531 -3.20282 4.54188e-006 -4.6773e-006 -1.05121 -1.79303 -10.2624 0.585471 -2.32201e-006 -2.56743e-006 -0.226946 21.9126 72.1018 -23.6377 -8.13666 25.2352 3.4843 
46.9863 84.2136 12.8638 0.207516 -1.15052 -4.09064 -0.233145 -1.6684 0.0465011 -0.463744 0.676417 0.12168 -0.465464 2.32146 0.129504 5.09103 14.1645 0.63092 -4.66549 -2.85841 1.80819 68.5027 0.382506 -0.898527 116.221 27.4241 -45.4417 6.50634e-006 -4.15991e-006 3.82449e-006 11.4429 88.3522 -17.246 -5.51698e-006 5.23422e-007 -3 8.03017 -4.95124 0.697628 -59.9526 -9.05926 5.63673 -122.134 24.2715 51.4913 -6.30101e-006 -6.67592e-006 -5.80768e-007 -26.4429 79.5904 28.4374 5.05732e-006 3.15039e-006 3 -8.03011 -4.95122 -0.697626 176.382 7.81273 0.963533 180 7.01592e-015 179.142 178.798 13.1851 179.157 -3.17488e-006 2.18243e-006 0.19269 -17.309 69.9505 21.1358 8.13649 25.2326 -3.48773 -176.115 -0.0626659 -3.21906 4.54188e-006 -4.6773e-006 -1.05105 -1.81026 -10.2481 0.583085 -2.32201e-006 -2.56743e-006 -0.22626 21.9024 72.0898 -23.6233 -8.13666 25.2352 3.4843 
46.9908 84.2068 12.8483 0.206737 -1.15308 -4.08578 -0.231868 -1.66591 0.0446499 -0.461289 0.680928 0.117634 -0.462961 2.32597 0.125414 5.06453 14.1653 0.650992 -4.67126 -2.85696 1.81895 68.494 0.380778 -0.898369 116.206 27.4571 -45.2816 6.50634e-006 -4.15991e-006 3.82449e-006 11.4367 88.3858 -17.2463 -5.51698e-006 5.23422e-007 -3 8.03017 -4.95124 0.697628 -59.9801 -9.03795 5.62393 -122.065 24.3082 51.3832 -6.30101e-006 -6.67592e-006 -5.80768e-007 -26.3439 79.5967 28.3549 5.05732e-006 3.15039e-006 3 -8.03011 -4.95122 -0.697626 176.382 7.80715 0.966304 180 7.01592e-015 179.142 178.794 13.1775 179.158 -3.17488e-006 2.18243e-006 0.19269 -17.3126 69.9491 21.1355 8.13649 25.2326 -3.48773 -176.103 -0.0705751 -3.23897 4.54188e-006 -4.6773e-006 -1.05089 -1.83147 -10.2308 0.580117 -2.32201e-006 -2.56742e-006 -0.225548 21.8925 72.0761 -23.6071 -8.13666 25.2352 3.4843 
46.9889 84.2077 12.8502 0.206077 -1.15663 -4.08124 -0.230452 -1.66299 0.0425702 -0.458578 0.686169 0.113049 -0.460194 2.33121 0.12078 5.03428 14.164 0.673044 -4.67421 -2.85492 1.8307 68.4799 0.377337 -0.898457 116.196 27.4948 -45.1286 6.50634e-006 -4.15991e-006 3.82449e-006 11.4241 88.4225 -17.2415 -5.51698e-006 5.23422e-007 -3 8.03017 -4.95124 0.697628 -60.0089 -9.01657 5.61111 -121.994 24.3453 51.2687 -6.30101e-006 -6.67592e-006 -5.80768e-007 -26.2408 79.6092 28.2727 5.05732e-006 3.15039e-006 3 -8.03011 -4.95122 -0.697626 176.382 7.8001 0.969692 180 7.01592e-015 179.142 178.79 13.1689 179.159 -3.17488e-006 2.18243e-006 0.19269 -17.3164 69.9474 21.1351 8.13649 25.2326 -3.48773 -176.09 -0.0808778 -3.2619 4.54188e-006 -4.6773e-006 -1.05073 -1.85594 -10.2109 0.576674 -2.32201e-006 -2.56742e-006 -0.224816 21.883 72.0611 -23.5894 -8.13666 25.2352 3.4843 
46.9877 84.2186 12.8631 0.20552 -1.16095 -4.07696 -0.228933 -1.65972 0.0403164 -0.455678 0.691992 0.108048 -0.457235 2.33704 0.115727 5.00125 14.1612 0.696614 -4.675 -2.85249 1.84325 68.4615 0.372299 -0.898853 116.192 27.5367 -44.9817 6.50634e-006 -4.15991e-006 3.82449e-006 11.4024 88.462 -17.2291 -5.51698e-006 5.23422e-007 -3 8.03017 -4.95124 0.697628 -60.0386 -8.99513 5.59828 -121.922 24.3825 51.1483 -6.30101e-006 -6.67592e-006 -5.80768e-007 -26.1335 79.6282 28.1902 5.05732e-006 3.15039e-006 3 -8.03011 -4.95122 -0.697626 176.382 7.79189 0.97352 180 7.01592e-015 179.142 178.785 13.1597 179.16 -3.17488e-006 2.18243e-006 0.192689 -17.3204 69.9453 21.1345 8.13649 25.2326 -3.48773 -176.076 -0.0930711 -3.28717 4.54188e-006 -4.6773e-006 -1.05058 -1.88297 -10.1891 0.572862 -2.32201e-006 -2.56743e-006 -0.224069 21.8738 72.0449 -23.5707 -8.13666 25.2352 3.4843 
46.9863 84.217 12.8572 0.205048 -1.16585 -4.07292 -0.227347 -1.65619 0.037943 -0.452659 0.698254 0.102756 -0.454152 2.3433 0.110381 4.9664 14.1571 0.72124 -4.67429 -2.84991 1.85637 68.4398 0.365784 -0.899617 116.192 27.5822 -44.8398 6.50634e-006 -4.15991e-006 3.82449e-006 11.3693 88.5042 -17.2065 -5.51698e-006 5.23422e-007 -3 8.03017 -4.95124 0.697628 -60.0687 -8.97364 5.58544 -121.849 24.4198 51.0224 -6.30101e-006 -6.67592e-006 -5.80768e-007 -26.0214 79.654 28.1071 5.05732e-006 3.15039e-006 3 -8.03011 -4.95122 -0.697626 176.381 7.78283 0.977608 180 7.01592e-015 179.143 178.78 13.1499 179.161 -3.17488e-006 2.18243e-006 0.192689 -17.3243 69.9431 21.1338 8.13649 25.2326 -3.48773 -176.061 -0.106652 -3.31415 4.54188e-006 -4.6773e-006 -1.05041 -1.91185 -10.1659 0.568785 -2.32201e-006 -2.56743e-006 -0.223313 21.8648 72.028 -23.5512 -8.13666 25.2352 3.4843 
46.9801 84.2134 12.847 0.204645 -1.17111 -4.06908 -0.22573 -1.65247 0.0355043 -0.449588 0.704809 0.0972975 -0.451016 2.34986 0.104867 4.93069 14.1523 0.746458 -4.67276 -2.84738 1.86985 68.4159 0.357907 -0.900811 116.195 27.6309 -44.7018 6.50634e-006 -4.15991e-006 3.82449e-006 11.3215 88.5489 -17.1703 -5.51698e-006 5.23422e-007 -3 8.03017 -4.95124 0.697628 -60.0989 -8.95213 5.57258 -121.776 24.4571 50.8916 -6.30101e-006 -6.67592e-006 -5.80768e-007 -25.904 79.6869 28.0228 5.05732e-006 3.15039e-006 3 -8.03011 -4.95122 -0.697626 176.38 7.77323 0.981778 180 7.01592e-015 179.143 178.775 13.1398 179.162 -3.17488e-006 2.18243e-006 0.192689 -17.3281 69.9406 21.1329 8.13649 25.2326 -3.48773 -176.046 -0.121118 -3.34216 4.54188e-006 -4.6773e-006 -1.05024 -1.94187 -10.1419 0.564551 -2.32201e-006 -2.56743e-006 -0.222552 21.8561 72.0107 -23.5314 -8.13666 25.2352 3.4843 
46.9826 84.2127 12.8475 0.204295 -1.17653 -4.0654 -0.22412 -1.64866 0.0330549 -0.446535 0.711512 0.0917956 -0.447896 2.35656 0.0993096 4.89508 14.1471 0.771807 -4.67106 -2.84512 1.88349 68.3908 0.348789 -0.902496 116.2 27.6823 -44.5667 6.50634e-006 -4.15991e-006 3.82449e-006 11.2556 88.5957 -17.1173 -5.51698e-006 5.23422e-007 -3 8.03017 -4.95124 0.697628 -60.1288 -8.93059 5.55972 -121.703 24.4941 50.7563 -6.30101e-006 -6.67592e-006 -5.80768e-007 -25.7808 79.7272 27.9369 5.05732e-006 3.15039e-006 3 -8.03011 -4.95122 -0.697626 176.38 7.76339 0.985853 180 7.01592e-015 179.143 178.77 13.1296 179.163 -3.17488e-006 2.18243e-006 0.192689 -17.3317 69.938 21.1319 8.13649 25.2326 -3.48773 -176.03 -0.135966 -3.37055 4.54188e-006 -4.6773e-006 -1.05005 -1.97233 -10.1176 0.560264 -2.32201e-006 -2.56743e-006 -0.221793 21.8476 71.9933 -23.5114 -8.13666 25.2352 3.4843 
